<?xml version="1.0" encoding="UTF-8" standalone="no"?>
<!DOCTYPE svg PUBLIC "-//W3C//DTD SVG 1.1//EN" "http://www.w3.org/Graphics/SVG/1.1/DTD/svg11.dtd">
<svg style="height: 100vh; display: block;" xmlns="http://www.w3.org/2000/svg" version="1.1" width="100%" height="100%">
                        <defs>
                            <filter id="white-glow" x="-150%" y="-150%" width="300%" height="300%">
                                <feFlood result="flood" flood-color="#ffffff" flood-opacity="0.15"></feFlood>
                                <feComposite in="flood" result="mask" in2="SourceGraphic" operator="in"></feComposite>
                                <feMorphology in="mask" result="dilated" operator="dilate" radius="5"></feMorphology>
                                <feGaussianBlur in="dilated" result="blurred" stdDeviation="5"></feGaussianBlur>
                                <feMerge>
                                    <feMergeNode in="blurred"></feMergeNode>
                                    <feMergeNode in="SourceGraphic"></feMergeNode>
                                </feMerge>
                            </filter>

                            <filter id="black-glow" x="-1000%" y="-1000%" width="2000%" height="2000%">
                                <feFlood result="flood" flood-color="#000000" flood-opacity="0.15"></feFlood>
                                <feComposite in="flood" result="mask" in2="SourceGraphic" operator="in"></feComposite>
                                <feMorphology in="mask" result="dilated" operator="dilate" radius="4"></feMorphology>
                                <feGaussianBlur in="dilated" result="blurred" stdDeviation="5"></feGaussianBlur>
                                <feMerge>
                                    <feMergeNode in="blurred"></feMergeNode>
                                    <feMergeNode in="SourceGraphic"></feMergeNode>
                                </feMerge>
                            </filter>

                            <marker id="transitionEndCircle" viewBox="0 -5 10 10" refX="31" refY="0" markerWidth="7" markerHeight="7" orient="auto" class="marker">
                                <path d="M0,-4L10,0L0,4"></path>
                            </marker>
                            <marker id="transitionEndRect" viewBox="0 -5 10 10" refX="10" refY="0" markerWidth="7" markerHeight="7" orient="auto" class="marker">
                                <path d="M0,-4L10,0L0,4"></path>
                            </marker>
                        </defs>
                    <g class="topGroup" transform="translate(327.1338427700771,380.7379031174155) scale(0.5743491774985175)"><g class="linesHost"><line class="transition" marker-end="url(#transitionEndCircle)" x1="-153.650307515869" y1="0" x2="-110.59725197233517" y2="285.9861629801827"></line><line class="transition" marker-end="url(#transitionEndCircle)" x1="-110.59725197233517" y1="285.9861629801827" x2="-303.4464024469439" y2="359.6560427697135"></line><line class="transition" marker-end="url(#transitionEndCircle)" x1="-110.59725197233517" y1="285.9861629801827" x2="-14.214587367376492" y2="465.10537172679085"></line><line class="transition" marker-end="url(#transitionEndCircle)" x1="-303.4464024469439" y1="359.6560427697135" x2="-255.2533137796769" y2="161.32386880435902"></line><line class="transition" marker-end="url(#transitionEndCircle)" x1="-14.214587367376492" y1="465.10537172679085" x2="158.09736516326106" y2="358.8992024914453"></line><line class="transition" marker-end="url(#transitionEndCircle)" x1="-255.2533137796769" y1="161.32386880435902" x2="-8.345209152317597" y2="120.07733952314595"></line><line class="transition" marker-end="url(#transitionEndCircle)" x1="158.09736516326106" y1="358.8992024914453" x2="305.63012588895555" y2="498.247155779051"></line><line class="transition" marker-end="url(#transitionEndCircle)" x1="-8.345209152317597" y1="120.07733952314595" x2="126.19773559260605" y2="-48.92133668676815"></line><line class="transition" marker-end="url(#transitionEndRect)" x1="305.63012588895555" y1="498.247155779051" x2="457.23301340502707" y2="464.200181349923"></line><line class="transition" marker-end="url(#transitionEndCircle)" x1="502.23301340502707" y1="454.0940819581925" x2="389.88268634267314" y2="277.31611427661574"></line><line class="transition" marker-end="url(#transitionEndCircle)" x1="126.19773559260605" y1="-48.92133668676815" x2="288.3339110004345" y2="110.88961023521959"></line><line class="transition" marker-end="url(#transitionEndCircle)" x1="126.19773559260605" y1="-48.92133668676815" x2="-34.549863996530206" y2="-187.36614153303918"></line><line class="transition" marker-end="url(#transitionEndCircle)" x1="389.88268634267314" y1="277.31611427661574" x2="439.5140156393449" y2="0"></line><line class="transition" marker-end="url(#transitionEndCircle)" x1="288.3339110004345" y1="110.88961023521959" x2="541.4169372725904" y2="158.38046957261292"></line><line class="transition" marker-end="url(#transitionEndCircle)" x1="-34.549863996530206" y1="-187.36614153303918" x2="-138.5502088692652" y2="-367.58956406572486"></line><line class="transition" marker-end="url(#transitionEndCircle)" x1="541.4169372725904" y1="158.38046957261292" x2="389.88268634267314" y2="277.31611427661574"></line><line class="transition" marker-end="url(#transitionEndCircle)" x1="-138.5502088692652" y1="-367.58956406572486" x2="48.97260142670158" y2="-445.61603821968146"></line><line class="transition" marker-end="url(#transitionEndCircle)" x1="48.97260142670158" y1="-445.61603821968146" x2="149.47242390826304" y2="-260.24354898164177"></line><line class="transition" marker-end="url(#transitionEndCircle)" x1="149.47242390826304" y1="-260.24354898164177" x2="126.19773559260605" y2="-48.92133668676815"></line></g><g class="statesHost"><circle r="30" class="state START" transform="translate(-153.650307515869,0)"><title>Rule start
The entry node of a rule.</title></circle><circle r="30" class="state BSTART" transform="translate(-110.59725197233517,285.9861629801827)"><title>Block start state
The start of a regular (...) block.</title></circle><circle r="30" class="state BASIC" transform="translate(-303.4464024469439,359.6560427697135)"><title>Basic state</title></circle><circle r="30" class="state BASIC" transform="translate(-14.214587367376492,465.10537172679085)"><title>Basic state</title></circle><circle r="30" class="state BASIC" transform="translate(-255.2533137796769,161.32386880435902)"><title>Basic state</title></circle><circle r="30" class="state BASIC" transform="translate(158.09736516326106,358.8992024914453)"><title>Basic state</title></circle><circle r="30" class="state BASIC" transform="translate(-8.345209152317597,120.07733952314595)"><title>Basic state</title></circle><circle r="30" class="state BASIC" transform="translate(305.63012588895555,498.247155779051)"><title>Basic state</title></circle><rect width="90px" height="50" y="-25" rx="5" ry="5" class="state RULE" x="-45px" transform="translate(502.23301340502707,454.0940819581925)"><title>Rule call
This is not a real ATN state but a placeholder to indicate a sub rule being 'called' by the rule transition.</title></rect><circle r="30" class="state SLENTRY" transform="translate(126.19773559260605,-48.92133668676815)"><title>Star loop entry
Entry + exit state for (A|B|...)* loops.</title></circle><circle r="30" class="state BEND" transform="translate(389.88268634267314,277.31611427661574)"><title>Block end
Terminal node of a simple (A|b|...) block.</title></circle><circle r="30" class="state LEND" transform="translate(288.3339110004345,110.88961023521959)"><title>Loop end
Marks the end of a * or + loop.</title></circle><circle r="30" class="state SBSTART" transform="translate(-34.549863996530206,-187.36614153303918)"><title>Star block start
Start of the actual block in a (A|b|...)* loop.</title></circle><circle r="30" class="state STOP" transform="translate(439.5140156393449,0)"><title>Rule stop
The exit state of a rule.</title></circle><circle r="30" class="state BASIC" transform="translate(541.4169372725904,158.38046957261292)"><title>Basic state</title></circle><circle r="30" class="state BASIC" transform="translate(-138.5502088692652,-367.58956406572486)"><title>Basic state</title></circle><circle r="30" class="state BEND" transform="translate(48.97260142670158,-445.61603821968146)"><title>Block end
Terminal node of a simple (A|b|...) block.</title></circle><circle r="30" class="state SLBACK" transform="translate(149.47242390826304,-260.24354898164177)"><title>Star loop back
The loop back state from the inner block to the star loop entry state.</title></circle></g><g class="textHost"><text x="0" y="0" class="stateLabel" transform="translate(-153.650307515869,0)">8</text><text x="0" y="0" class="stateLabel" transform="translate(-110.59725197233517,285.9861629801827)">90</text><text x="0" y="0" class="stateLabel" transform="translate(-303.4464024469439,359.6560427697135)">77</text><text x="0" y="0" class="stateLabel" transform="translate(-14.214587367376492,465.10537172679085)">87</text><text x="0" y="0" class="stateLabel" transform="translate(-255.2533137796769,161.32386880435902)">78</text><text x="0" y="0" class="stateLabel" transform="translate(158.09736516326106,358.8992024914453)">88</text><text x="0" y="0" class="stateLabel" transform="translate(-8.345209152317597,120.07733952314595)">79</text><text x="0" y="0" class="stateLabel" transform="translate(305.63012588895555,498.247155779051)">89</text><text x="0" y="0" class="stateLabel" transform="translate(502.23301340502707,454.0940819581925)">block</text><text x="0" y="0" class="stateLabel" transform="translate(126.19773559260605,-48.92133668676815)">83</text><text x="0" y="0" class="stateLabel" transform="translate(389.88268634267314,277.31611427661574)">91</text><text x="0" y="0" class="stateLabel" transform="translate(288.3339110004345,110.88961023521959)">84</text><text x="0" y="0" class="stateLabel" transform="translate(-34.549863996530206,-187.36614153303918)">81</text><text x="0" y="0" class="stateLabel" transform="translate(439.5140156393449,0)">9</text><text x="0" y="0" class="stateLabel" transform="translate(541.4169372725904,158.38046957261292)">86</text><text x="0" y="0" class="stateLabel" transform="translate(-138.5502088692652,-367.58956406572486)">80</text><text x="0" y="0" class="stateLabel" transform="translate(48.97260142670158,-445.61603821968146)">82</text><text x="0" y="0" class="stateLabel" transform="translate(149.47242390826304,-260.24354898164177)">85</text></g><g class="descriptionHost"><text x="0" y="13" class="stateTypeLabel" transform="translate(-153.650307515869,0)">START</text><text x="0" y="13" class="stateTypeLabel" transform="translate(-110.59725197233517,285.9861629801827)">BSTART</text><text x="0" y="13" class="stateTypeLabel" transform="translate(-303.4464024469439,359.6560427697135)">BASIC</text><text x="0" y="13" class="stateTypeLabel" transform="translate(-14.214587367376492,465.10537172679085)">BASIC</text><text x="0" y="13" class="stateTypeLabel" transform="translate(-255.2533137796769,161.32386880435902)">BASIC</text><text x="0" y="13" class="stateTypeLabel" transform="translate(158.09736516326106,358.8992024914453)">BASIC</text><text x="0" y="13" class="stateTypeLabel" transform="translate(-8.345209152317597,120.07733952314595)">BASIC</text><text x="0" y="13" class="stateTypeLabel" transform="translate(305.63012588895555,498.247155779051)">BASIC</text><text x="0" y="13" class="stateTypeLabel" transform="translate(502.23301340502707,454.0940819581925)">RULE</text><text x="0" y="13" class="stateTypeLabel" transform="translate(126.19773559260605,-48.92133668676815)">SLENTRY</text><text x="0" y="13" class="stateTypeLabel" transform="translate(389.88268634267314,277.31611427661574)">BEND</text><text x="0" y="13" class="stateTypeLabel" transform="translate(288.3339110004345,110.88961023521959)">LEND</text><text x="0" y="13" class="stateTypeLabel" transform="translate(-34.549863996530206,-187.36614153303918)">SBSTART</text><text x="0" y="13" class="stateTypeLabel" transform="translate(439.5140156393449,0)">STOP</text><text x="0" y="13" class="stateTypeLabel" transform="translate(541.4169372725904,158.38046957261292)">BASIC</text><text x="0" y="13" class="stateTypeLabel" transform="translate(-138.5502088692652,-367.58956406572486)">BASIC</text><text x="0" y="13" class="stateTypeLabel" transform="translate(48.97260142670158,-445.61603821968146)">BEND</text><text x="0" y="13" class="stateTypeLabel" transform="translate(149.47242390826304,-260.24354898164177)">SLBACK</text></g><g class="labelsHost"><text x="0" y="0" class="linkLabel" transform="translate(-132.12377974410208, 142.99308149009136) rotate(0) translate(10, -10)"><tspan x="0" dy="1.5em">ε</tspan></text><text x="0" y="0" class="linkLabel" transform="translate(-207.02182720963955, 322.8211028749481) rotate(339.0927530897088) translate(10, 0)"><tspan x="0" dy="1.5em">ε</tspan></text><text x="0" y="0" class="linkLabel" transform="translate(-62.405919669855834, 375.5457673534868) rotate(0) translate(10, -10)"><tspan x="0" dy="1.5em">ε</tspan></text><text x="0" y="0" class="linkLabel" transform="translate(-279.3498581133104, 260.48995578703625) rotate(0) translate(10, -10)"><tspan x="0" dy="1.5em" class="heading">Atom Transition</tspan><tspan x="0" dy="1.5em">'struct'</tspan></text><text x="0" y="0" class="linkLabel" transform="translate(71.94138889794229, 412.0022871091181) rotate(-31.648013296067408) translate(0, 0)"><tspan x="0" dy="1.5em" class="heading">Atom Transition</tspan><tspan x="0" dy="1.5em">'impl'</tspan></text><text x="0" y="0" class="linkLabel" transform="translate(-131.79926146599723, 140.70060416375247) rotate(-9.483810396157015) translate(0, 0)"><tspan x="0" dy="1.5em" class="heading">Atom Transition</tspan><tspan x="0" dy="1.5em">ID</tspan></text><text x="0" y="0" class="linkLabel" transform="translate(231.8637455261083, 428.57317913524815) rotate(43.36577461845545) translate(0, 0)"><tspan x="0" dy="1.5em" class="heading">Atom Transition</tspan><tspan x="0" dy="1.5em">ID</tspan></text><text x="0" y="0" class="linkLabel" transform="translate(58.92626322014423, 35.578001418188904) rotate(0) translate(10, -10)"><tspan x="0" dy="1.5em" class="heading">Atom Transition</tspan><tspan x="0" dy="1.5em">'{'</tspan></text><text x="0" y="0" class="linkLabel" transform="translate(393.9315696469913, 476.1706188686218) rotate(-12.657476017305118) translate(0, 0)"><tspan x="0" dy="1.5em" class="heading">Rule Transition</tspan><tspan x="0" dy="1.5em">ε</tspan></text><text x="0" y="0" class="linkLabel" transform="translate(456.05784987385016, 365.7050981174041) rotate(0) translate(10, -10)"><tspan x="0" dy="1.5em">ε</tspan></text><text x="0" y="0" class="linkLabel" transform="translate(207.2658232965203, 30.98413677422572) rotate(44.58619458603231) translate(0, 0)"><tspan x="0" dy="1.5em">ε</tspan></text><text x="0" y="0" class="linkLabel" transform="translate(45.82393579803792, -118.14373910990366) rotate(40.73686710931986) translate(10, 0)"><tspan x="0" dy="1.5em">ε</tspan></text><text x="0" y="0" class="linkLabel" transform="translate(414.698350991009, 138.65805713830787) rotate(0) translate(10, -10)"><tspan x="0" dy="1.5em">ε</tspan></text><text x="0" y="0" class="linkLabel" transform="translate(414.8754241365125, 134.63503990391627) rotate(10.627920237232136) translate(0, 0)"><tspan x="0" dy="1.5em">ε</tspan></text><text x="0" y="0" class="linkLabel" transform="translate(-86.5500364328977, -277.47785279938205) rotate(0) translate(10, -10)"><tspan x="0" dy="1.5em">ε</tspan></text><text x="0" y="0" class="linkLabel" transform="translate(465.64981180763175, 217.84829192461433) rotate(321.87247121157714) translate(10, 0)"><tspan x="0" dy="1.5em" class="heading">Atom Transition</tspan><tspan x="0" dy="1.5em">'}'</tspan></text><text x="0" y="0" class="linkLabel" transform="translate(-44.78880372128181, -406.60280114270313) rotate(-22.59173440992047) translate(0, 0)"><tspan x="0" dy="1.5em" class="heading">Wildcard Transition</tspan><tspan x="0" dy="1.5em">∀</tspan></text><text x="0" y="0" class="linkLabel" transform="translate(99.2225126674823, -352.9297936006616) rotate(0) translate(10, -10)"><tspan x="0" dy="1.5em">ε</tspan></text><text x="0" y="0" class="linkLabel" transform="translate(137.83507975043455, -154.58244283420495) rotate(0) translate(10, -10)"><tspan x="0" dy="1.5em">ε</tspan></text></g></g><defs><style type="text/css"><![CDATA[
svg.railroad-diagram path { stroke-width: 2; stroke: darkgray; fill: rgba(0, 0, 0, 0);}/* All text except comments. */svg.railroad-diagram text { font: bold 12px Hack, "Source Code Pro", monospace; text-anchor: middle; fill: #404040;}/* Comment text */svg.railroad-diagram text.comment { font: italic 10px Hack, "Source Code Pro", monospace; fill: #404040;}/* The terminal boxes. */svg.railroad-diagram g.terminal rect { stroke-width: 2; stroke: #404040; fill: rgba(200, 200, 200, 1);}svg.railroad-diagram g.non-terminal rect { /* The non-terminal boxes. */ stroke-width: 2; stroke: #404040; fill: rgba(255, 255, 255, 1);}/* Multiple choice text, not working atm. */svg.railroad-diagram text.diagram-text { font-size: 12px Hack, "Source Code Pro", monospace; fill: red;}/* Multiple choice text, not working atm. */svg.railroad-diagram path.diagram-text { stroke-width: 1; stroke: red; fill: red; cursor: help;}
 ]]>
</style></defs></svg>